<svg xmlns="http://www.w3.org/2000/svg" width="256" height="256"><path fill-opacity=".016" d="M0 128.004v128.004l128.25-.254 128.25-.254.254-127.75L257.008 0H0v128.004m.485.496c0 70.4.119 99.053.265 63.672.146-35.38.146-92.98 0-128C.604 29.153.485 58.1.485 128.5" fill="#1976D2" fill-rule="evenodd"/><path fill-opacity=".187" d="M154.211 4.538c-.71.804-2.174 1.462-3.254 1.462-3.133 0-15.587 7.037-22.44 12.678C123.18 23.072 113 34.681 113 36.374c0 .289-1.35 2.526-3 4.971-1.65 2.445-3 5.562-3 6.928 0 1.365-.675 4.098-1.5 6.073-1.07 2.562-1.5 7.286-1.5 16.5 0 9.213.43 13.938 1.5 16.5.825 1.974 1.5 4.928 1.5 6.563 0 1.635.478 3.268 1.062 3.629.584.361 1.503 1.625 2.043 2.809 5.325 11.684 20.142 26.652 30.895 31.21.825.35 2.85 1.213 4.5 1.917 8.392 3.582 10.63 3.968 24.882 4.291 11.9.27 15.536.027 18.151-1.214 1.798-.853 3.925-1.551 4.727-1.551 1.674 0 12.459-5.542 14.819-7.614.868-.762 2.004-1.386 2.525-1.386 2.617 0 16.915-15.955 19.715-22 .382-.825 1.797-3.3 3.144-5.5 1.348-2.2 2.47-4.958 2.494-6.128.023-1.17.759-3.842 1.635-5.937 1.993-4.771 1.723-30.524-.342-32.586-.687-.687-1.25-2.495-1.25-4.018 0-2.421-1.048-4.84-5.538-12.778-3.276-5.793-11.667-15.33-17.184-19.531C206.2 12.132 194.881 6 192.011 6c-1.028 0-2.543-.675-3.368-1.5-2.169-2.169-32.516-2.135-34.432.038M52 133.245a664.25 664.25 0 0 1-7 3.025 519.86 519.86 0 0 0-10 4.424c-3.025 1.38-7.3 3.321-9.5 4.313A2070.6 2070.6 0 0 0 15 149.8a859.252 859.252 0 0 1-10.724 4.844L.052 156.5l-.026 38.75C.011 216.843.389 234 .878 234c1.071 0 6.471-2.221 15.122-6.221 3.575-1.652 8.975-4.113 12-5.469a869.709 869.709 0 0 0 12.753-5.887c3.989-1.883 8.181-3.423 9.314-3.423 2.207 0 6.784 1.737 21.933 8.322 1.925.837 8.675 3.632 15 6.212 13.172 5.371 16.134 6.601 21 8.722 1.925.839 5.975 2.499 9 3.688 3.025 1.19 6.4 2.544 7.5 3.009 12.15 5.137 19.536 8.047 20.423 8.047.593 0 1.077.45 1.077 1 0 .553 2.617 1 5.851 1 6.003 0 6.052-.019 20.649-7.994l12.5-6.829c3.575-1.953 8.3-4.575 10.5-5.827 2.2-1.251 6.25-3.456 9-4.9 2.75-1.443 7.7-4.149 11-6.012 3.3-1.864 6.9-3.861 8-4.438 1.1-.577 4.7-2.574 8-4.438 3.3-1.863 8.388-4.577 11.306-6.031 2.918-1.453 7.07-4.407 9.228-6.565l3.922-3.922.295 18.728c.163 10.3.304.953.314-20.772.011-21.725-.225-32.975-.523-25-.475 12.704-.703 14.19-1.84 12-2.088-4.019-7.537-7-12.794-7-3.686 0-5.434-.645-8.645-3.187-3.536-2.801-4.767-3.187-10.144-3.181-4.91.006-6.955.537-10.349 2.688-2.327 1.474-4.527 2.68-4.891 2.68-.363 0-2.509.869-4.769 1.932-2.261 1.062-8.16 3.818-13.11 6.124a2092.056 2092.056 0 0 0-16.057 7.568c-3.881 1.857-7.368 3.376-7.75 3.376-.381 0-.693-1.719-.693-3.82 0-2.919-.824-4.783-3.496-7.904-2.991-3.495-9.45-7.045-44.75-24.596-22.69-11.281-42.996-21.224-45.126-22.096-4.452-1.821-15.844-2.018-19.628-.339M.455 195c0 21.725.132 30.612.294 19.75.161-10.863.161-28.638 0-39.5C.587 164.387.455 173.275.455 195" fill="#1976D2" fill-rule="evenodd"/><path fill-opacity=".294" d="M159 4.393C159 5.923 156.898 7 153.914 7c-4.247 0-15.379 7.192-20.414 13.189-2.75 3.275-6.054 7.16-7.342 8.633-1.288 1.473-3.188 4.028-4.222 5.678-1.144 1.826-3.515 3.587-6.057 4.5-3.78 1.358-4.35 2.022-6 7-1.002 3.025-1.835 6.752-1.851 8.282-.015 1.53-.703 4.398-1.528 6.372-2.057 4.924-1.88 14.199.479 25.005 2.595 11.892 2.443 11.528 8.873 21.215 5.227 7.876 16.436 18.861 21.648 21.217 1.1.497 2.675 1.334 3.5 1.859 1.715 1.092 6.283 2.997 13.5 5.631 6.999 2.554 24.721 2.609 33 .102 5.299-1.604 18.151-7.329 19.5-8.686.275-.276 2.377-1.775 4.67-3.331 4.56-3.092 12.142-11.478 17.082-18.893 7.737-11.614 11.547-34.875 7.759-47.364-.819-2.7-1.494-5.659-1.5-6.576-.011-1.612-2.616-7.691-5.5-12.833-5.135-9.154-17.95-21.341-27.189-25.856-2.652-1.296-6.016-2.984-7.476-3.75-1.46-.767-3.823-1.394-5.25-1.394-1.428 0-3.496-.9-4.596-2-1.778-1.778-3.333-2-14-2-9.59 0-12 .28-12 1.393m-20.011 21.901c-1.931 1.764-4.162 4.556-4.957 6.206-.795 1.65-2.097 3.788-2.894 4.75-1.297 1.568-1.236 1.75.582 1.75 3.835 0 8.247-1.244 7.678-2.166-.314-.507.017-1.629.735-2.494 1.101-1.327 3.338-6.573 4.143-9.715.538-2.102-2.052-1.284-5.287 1.669m70.387 147.015c-4.468 2.305-10.993 5.494-14.5 7.088a1599.348 1599.348 0 0 0-13.376 6.17c-3.85 1.8-9.025 4.2-11.5 5.333-2.475 1.132-6.864 4.298-9.753 7.035-6.4 6.061-10.064 7-18.345 4.698-6.703-1.864-10.902-2.099-10.902-.612 0 .562 1.238 1.564 2.75 2.227 1.512.663 6.64 3.54 11.394 6.393l8.644 5.188 2.001-2.301c2.02-2.324 11.662-7.207 34.211-17.328 2.475-1.111 7.2-3.231 10.5-4.71 11.048-4.954 18.976-8.605 21.831-10.054 1.557-.79 3.415-1.436 4.128-1.436.713 0 1.856-.675 2.541-1.5.685-.825 2.315-1.5 3.622-1.5 4.043 0 2.552-3.817-2.837-7.264-4.7-3.006-11.179-2.189-20.409 2.573M126 201c1.97 1.273 4.287 1.273 3.5 0-.34-.55-1.604-.993-2.809-.985-1.781.013-1.91.197-.691.985" fill="#1976D2" fill-rule="evenodd"/><path fill-opacity=".139" d="M184 8.8c0 1.246 2.259 3.2 3.7 3.2 2.948 0 18.491 15.698 21.311 21.524 1.22 2.519 2.028 4.771 1.795 5.003-.233.233-3.619.72-7.525 1.084l-7.102.66-2.09-4.096C192.94 33.923 192 31.262 192 30.262c0-.999-.608-2.705-1.351-3.789-.743-1.085-1.626-3.098-1.963-4.473-.336-1.375-1.461-3.024-2.499-3.665-1.78-1.099-1.836-.929-.98 3 1.266 5.81 2.905 14.793 3.116 17.084.176 1.91-.254 2.11-8.614 4.007-3.922.889-2.512 2.336 3.064 3.142 2.6.377 5.29 1.133 5.977 1.681 1.604 1.278 1.674 17.812.126 29.884-1.087 8.47-1.248 8.851-4.75 11.233-2.705 1.839-5.911 2.734-12.626 3.526-13.208 1.558-16.36 1.664-17.291.581-1.12-1.303-3.879-10.885-4.744-16.473-1.534-9.922-3.293-6.529-3.395 6.55-.043 5.616-.525 9.505-1.27 10.25-.75.75-4.473 1.2-9.927 1.2-8.238 0-8.844-.148-10.8-2.635-1.14-1.449-2.073-3.662-2.073-4.917s-1.008-4.457-2.24-7.115l-2.241-4.833-.509 9.5c-.509 9.477-.517 9.501-3.26 9.816-2.103.242-2.75.853-2.75 2.595 0 2.276 2.97 5.815 4.625 5.512 4.355-.797 7.818 3.536 5.628 7.043-.97 1.554-.283 2.683 4.74 7.785 12.929 13.131 28.94 20.259 45.507 20.259 19.387 0 40.313-10.973 52.463-27.51 2.021-2.75 3.966-5.787 4.324-6.75.358-.963 1.093-1.75 1.635-1.75 2.284 0 6.368-19.03 6.437-30 .052-8.118-1.573-18.527-3.471-22.236-.488-.955-.888-2.578-.888-3.607 0-1.028-1.575-3.932-3.5-6.453-1.925-2.521-3.5-4.852-3.5-5.178 0-1.351-12.824-13.175-16.272-15.003-2.05-1.088-3.728-2.214-3.728-2.502 0-.542-5.661-3.476-12.284-6.369C188.729 7.911 184 7.449 184 8.8m14.395 40.613c-.332.864-.106 4.424.501 7.911.607 3.487 1.104 7.84 1.104 9.675 0 1.834.291 3.043.647 2.687.768-.768 4.231-10.124 5.065-13.686.323-1.375 1.081-2.821 1.687-3.214 1.633-1.059-1.254-3.45-5.15-4.265-2.471-.517-3.395-.303-3.854.892m-68.39 53.337c.01 1.65 7.21 8.521 7.847 7.489.366-.592 2.237-1.225 4.157-1.408 3.126-.296 3.524-.671 3.804-3.581l.314-3.25h-8.064c-4.434 0-8.061.338-8.058.75m26.995.867c0 1.188.596 1.457 2.25 1.013 1.238-.331 2.7-.64 3.25-.687 1.249-.104-2.546-1.777-4.25-1.873-.687-.038-1.25.657-1.25 1.547" fill="#1976D2" fill-rule="evenodd"/></svg>